<svg width="75" height="73" viewBox="0 0 75 73" fill="none" xmlns="http://www.w3.org/2000/svg">
    <rect x="1.5" width="73" height="73" rx="36.5" fill="#DF832F" />
    <g clip-path="url(#clip0_10116_1272)">
        <path
            d="M49.1975 30C49.645 30 50.0875 30.085 50.5 30.2475V21.25C50.5 20.2554 50.1049 19.3016 49.4017 18.5983C48.6984 17.8951 47.7446 17.5 46.75 17.5H39.25V16.25C39.2571 16.0839 39.2296 15.9182 39.1693 15.7634C39.109 15.6085 39.0171 15.4679 38.8996 15.3504C38.7821 15.2329 38.6415 15.141 38.4866 15.0807C38.3317 15.0204 38.166 14.9929 38 15C37.31 15 36.75 15.575 36.75 16.25V17.5H29.25C28.2554 17.5 27.3016 17.8951 26.5983 18.5983C25.8951 19.3016 25.5 20.2554 25.5 21.25V31.25C25.5 32.2446 25.8951 33.1984 26.5983 33.9016C27.3016 34.6049 28.2554 35 29.25 35H44.985L45.83 32.4025L45.84 32.3725C46.0845 31.6772 46.5393 31.0752 47.1414 30.65C47.7435 30.2249 48.4605 29.9977 49.1975 30ZM30.5 26.25C30.5 25.5869 30.7634 24.9511 31.2322 24.4822C31.7011 24.0134 32.337 23.75 33 23.75C33.663 23.75 34.2989 24.0134 34.7678 24.4822C35.2366 24.9511 35.5 25.5869 35.5 26.25C35.5 26.913 35.2366 27.5489 34.7678 28.0178C34.2989 28.4866 33.663 28.75 33 28.75C32.337 28.75 31.7011 28.4866 31.2322 28.0178C30.7634 27.5489 30.5 26.913 30.5 26.25ZM40.5 26.25C40.5 25.5869 40.7634 24.9511 41.2322 24.4822C41.7011 24.0134 42.337 23.75 43 23.75C43.663 23.75 44.2989 24.0134 44.7678 24.4822C45.2366 24.9511 45.5 25.5869 45.5 26.25C45.5 26.913 45.2366 27.5489 44.7678 28.0178C44.2989 28.4866 43.663 28.75 43 28.75C42.337 28.75 41.7011 28.4866 41.2322 28.0178C40.7634 27.5489 40.5 26.913 40.5 26.25ZM38 55C42.3575 55 45.605 54.435 48.0125 53.47C48.0445 53.089 48.1436 52.7166 48.305 52.37C47.7521 52.2186 47.244 51.9355 46.8244 51.545C46.4047 51.1544 46.0858 50.6681 45.895 50.1275L45.885 50.0975L45.0075 47.3975L44.92 47.1725C44.7698 46.8148 44.5516 46.4896 44.2775 46.215L44.1175 46.065C43.8205 45.807 43.4756 45.6099 43.1025 45.485L40.4025 44.61L40.375 44.5975C39.8115 44.3987 39.3071 44.0613 38.9084 43.6162C38.5096 43.1711 38.2295 42.6327 38.0937 42.0508C37.958 41.4689 37.971 40.8621 38.1315 40.2865C38.2921 39.7109 38.5951 39.1851 39.0125 38.7575H26.2725C25.0728 38.7582 23.9225 39.2352 23.0745 40.0837C22.2264 40.9322 21.75 42.0828 21.75 43.2825V45.005H21.7625C21.8475 46.955 22.3825 49.3975 24.57 51.3925C26.96 53.575 31.085 55 38 55ZM51.065 35.8825L50.195 33.2075C50.1228 33.0001 49.9879 32.8203 49.8089 32.6931C49.63 32.5659 49.4158 32.4976 49.1963 32.4976C48.9767 32.4976 48.7625 32.5659 48.5836 32.6931C48.4046 32.8203 48.2697 33.0001 48.1975 33.2075L47.3275 35.8825C47.063 36.6913 46.6144 37.4276 46.017 38.0336C45.4197 38.6397 44.6899 39.0988 43.885 39.375L41.2075 40.245C41.001 40.3177 40.8221 40.4527 40.6956 40.6313C40.5691 40.81 40.5011 41.0236 40.5011 41.2425C40.5011 41.4614 40.5691 41.675 40.6956 41.8536C40.8221 42.0323 41.001 42.1673 41.2075 42.24L43.885 43.11C44.7017 43.3804 45.4435 43.8386 46.051 44.4477C46.6584 45.0569 47.1144 45.8001 47.3825 46.6175L48.2525 49.2925C48.3252 49.499 48.4602 49.6778 48.6389 49.8044C48.8175 49.9309 49.0311 49.9988 49.25 49.9988C49.4689 49.9988 49.6825 49.9309 49.8611 49.8044C50.0398 49.6778 50.1748 49.499 50.2475 49.2925L51.12 46.6175C51.3898 45.8031 51.8464 45.0631 52.4532 44.4567C53.0601 43.8503 53.8004 43.3942 54.615 43.125L57.295 42.255C57.5004 42.1812 57.678 42.0457 57.8035 41.8672C57.929 41.6887 57.9964 41.4757 57.9964 41.2575C57.9964 41.0392 57.929 40.8263 57.8035 40.6478C57.678 40.4692 57.5004 40.3338 57.295 40.26L57.24 40.2475L54.56 39.375C53.7454 39.1058 53.0051 38.6497 52.3982 38.0433C51.7914 37.4369 51.3348 36.6969 51.065 35.8825ZM60.5425 52.4125L62.4575 53.0325L62.495 53.0425C62.6053 53.0814 62.705 53.1453 62.7865 53.2293C62.8679 53.3132 62.9288 53.4148 62.9644 53.5262C63 53.6376 63.0093 53.7557 62.9916 53.8713C62.974 53.9869 62.9298 54.0968 62.8625 54.1925C62.7717 54.3203 62.6432 54.4165 62.495 54.4675L60.5825 55.0875C60.0005 55.2811 59.4716 55.6076 59.0376 56.0411C58.6037 56.4746 58.2767 57.0032 58.0825 57.585L57.4625 59.495C57.4107 59.6427 57.3144 59.7706 57.1867 59.8611C57.0591 59.9516 56.9065 60.0002 56.75 60.0002C56.5935 60.0002 56.4409 59.9516 56.3133 59.8611C56.1856 59.7706 56.0893 59.6427 56.0375 59.495L55.415 57.585C55.2221 57.0021 54.8959 56.4721 54.4623 56.0373C54.0288 55.6025 53.4999 55.2747 52.9175 55.08L51.005 54.4575C50.8949 54.4183 50.7954 54.3542 50.7143 54.2701C50.6331 54.1861 50.5725 54.0844 50.5371 53.9731C50.5018 53.8617 50.4927 53.7437 50.5105 53.6282C50.5284 53.5127 50.5727 53.403 50.64 53.3075C50.7301 53.1801 50.8577 53.0839 51.005 53.0325L52.9175 52.4125C53.4918 52.2139 54.0126 51.8854 54.4393 51.4527C54.866 51.0199 55.187 50.4946 55.3775 49.9175L56 48.005C56.0518 47.8573 56.1481 47.7294 56.2758 47.6389C56.4034 47.5483 56.556 47.4997 56.7125 47.4997C56.869 47.4997 57.0216 47.5483 57.1492 47.6389C57.2769 47.7294 57.3732 47.8573 57.425 48.005L58.0475 49.9175C58.2418 50.4986 58.5686 51.0265 59.002 51.4595C59.4355 51.8925 59.9612 52.2188 60.5425 52.4125Z"
            fill="#FAF0F0" />
    </g>
    <path
        d="M1.13512 65.2839L5.36305 49.5801C6.01949 47.1419 9.2106 46.5558 10.6906 48.6017L20.9584 62.7954C22.3111 64.6653 21.134 67.2985 18.8386 67.5377L4.34278 69.0476C2.24927 69.2657 0.587913 67.3163 1.13512 65.2839Z"
        fill="#DF832F" />
    <defs>
        <clipPath id="clip0_10116_1272">
            <rect width="50" height="50" fill="white" transform="translate(13 10)" />
        </clipPath>
    </defs>
</svg>
    