<svg width="20" height="20" viewBox="0 0 20 20" fill="none" xmlns="http://www.w3.org/2000/svg">
    <path fill-rule="evenodd" clip-rule="evenodd"
        d="M9.9999 11.7674L17.0712 18.8387C17.3069 19.0664 17.6227 19.1924 17.9504 19.1895C18.2781 19.1867 18.5917 19.0552 18.8234 18.8235C19.0552 18.5917 19.1866 18.2782 19.1895 17.9504C19.1923 17.6227 19.0663 17.3069 18.8386 17.0712L11.7674 9.99994L18.8386 2.92869C19.0663 2.69294 19.1923 2.37719 19.1895 2.04944C19.1866 1.7217 19.0552 1.40818 18.8234 1.17642C18.5917 0.944659 18.2781 0.813198 17.9504 0.81035C17.6227 0.807502 17.3069 0.933495 17.0712 1.16119L9.9999 8.23244L2.92865 1.16119C2.69184 0.939123 2.37792 0.817899 2.05331 0.82317C1.72871 0.828441 1.41889 0.959794 1.18941 1.18943C0.959935 1.41908 0.828801 1.72899 0.823759 2.05359C0.818718 2.3782 0.940164 2.69204 1.1624 2.92869L8.2324 9.99994L1.16115 17.0712C1.04176 17.1865 0.946536 17.3244 0.881025 17.4769C0.815513 17.6294 0.78103 17.7935 0.779588 17.9594C0.778146 18.1254 0.809773 18.29 0.872624 18.4436C0.935475 18.5973 1.02829 18.7368 1.14566 18.8542C1.26302 18.9715 1.40259 19.0644 1.55621 19.1272C1.70983 19.1901 1.87443 19.2217 2.0404 19.2203C2.20638 19.2188 2.3704 19.1843 2.52291 19.1188C2.67541 19.0533 2.81334 18.9581 2.92865 18.8387L9.9999 11.7674Z"
        fill="white" fill-opacity="0.4" />
</svg>
    