<svg width="2040" height="524" viewBox="0 0 2040 524" fill="none" xmlns="http://www.w3.org/2000/svg">
<path d="M760.632 333.558H833.539C838.798 333.558 843.073 337.833 843.073 343.093V388.761C843.073 394.02 838.798 398.296 833.539 398.296H684.659C679.4 398.296 675.125 394.02 675.125 388.761V135.069C675.125 129.81 679.4 125.534 684.659 125.534H751.135C756.394 125.534 760.669 129.81 760.669 135.069V333.558H760.632Z" fill="#FAF0F0"/>
<path d="M1151.73 139.42L1061.04 315.434V388.723C1061.04 393.982 1056.77 398.258 1051.51 398.258H985.03C979.771 398.258 975.496 393.982 975.496 388.723V315.434L884.806 139.42C881.552 133.064 886.13 125.534 893.281 125.534H969.328C973.074 125.534 976.479 127.729 978.031 131.134L1019.04 222.206L1060.06 131.134C1061.61 127.729 1064.98 125.534 1068.76 125.534H1143.29C1150.41 125.534 1155.02 133.064 1151.77 139.42H1151.73Z" fill="#FAF0F0"/>
<path d="M1457.13 398.258H1386.27C1383.05 398.258 1380.1 396.669 1378.32 393.982L1290.62 261.139V388.761C1290.62 394.02 1286.35 398.296 1281.09 398.296H1214.61C1209.35 398.296 1205.08 394.02 1205.08 388.761V135.069C1205.08 129.81 1209.35 125.534 1214.61 125.534H1285.44C1288.65 125.534 1291.68 127.161 1293.42 129.885L1381.12 264.999V135.069C1381.12 129.81 1385.4 125.534 1390.66 125.534H1457.13C1462.39 125.534 1466.67 129.81 1466.67 135.069V388.723C1466.67 393.982 1462.39 398.258 1457.13 398.258Z" fill="#FAF0F0"/>
<path d="M1617.63 193.715V227.238H1692.84C1698.1 227.238 1702.38 231.514 1702.38 236.773V282.063C1702.38 287.322 1698.1 291.598 1692.84 291.598H1617.63V330.115H1704.38C1709.64 330.115 1713.92 334.39 1713.92 339.65V388.799C1713.92 394.058 1709.64 398.334 1704.38 398.334H1541.62C1536.36 398.334 1532.08 394.058 1532.08 388.799V135.069C1532.08 129.81 1536.36 125.534 1541.62 125.534H1704.38C1709.64 125.534 1713.92 129.81 1713.92 135.069V184.218C1713.92 189.477 1709.64 193.753 1704.38 193.753H1617.63V193.715Z" fill="#FAF0F0"/>
<path d="M1944.14 394.247L1896.93 327.391L1858.07 393.566C1856.37 396.48 1853.23 398.258 1849.86 398.258H1775.25C1767.72 398.258 1763.18 389.934 1767.23 383.615L1847.63 257.658L1764.69 140.555C1760.23 134.237 1764.73 125.534 1772.45 125.534H1850.39C1853.49 125.534 1856.37 127.048 1858.18 129.583L1903.47 193.715L1940.78 130.226C1942.48 127.312 1945.62 125.534 1948.99 125.534H2023.6C2031.13 125.534 2035.67 133.858 2031.62 140.177L1952.77 263.41L2037.63 383.199C2042.1 389.518 2037.6 398.22 2029.88 398.22H1951.94C1948.83 398.22 1945.96 396.707 1944.14 394.209V394.247Z" fill="#FAF0F0"/>
<path d="M247.402 168.138L113.694 256.41C109.759 259.021 109.759 264.81 113.694 267.42L248.613 356.487C255.499 361.027 259.623 368.708 259.623 376.956V516.837C259.623 522.475 253.266 525.804 248.65 522.55L9.83697 355.919C3.66989 351.606 0 344.568 0 337.077V186.753C0 179.224 3.66989 172.186 9.83697 167.911L248.613 1.28004C253.228 -1.93604 259.585 1.35572 259.585 6.99332V145.436C259.585 154.593 255.007 163.106 247.364 168.138H247.402Z" fill="#FAF0F0"/>
<path d="M568.506 186.753V337.077C568.506 344.606 564.837 351.644 558.669 355.919L319.856 522.55C315.24 525.766 308.884 522.474 308.884 516.837V376.956C308.884 368.708 313.008 361.027 319.894 356.487L454.813 267.42C458.747 264.81 458.747 259.021 454.813 256.41L321.104 168.138C313.462 163.106 308.884 154.555 308.884 145.436V6.99331C308.884 1.3557 315.24 -1.97389 319.856 1.28003L558.669 167.911C564.837 172.224 568.506 179.262 568.506 186.753Z" fill="#FAF0F0"/>
</svg>
