<svg width="605" height="362" viewBox="0 0 605 362" fill="none" xmlns="http://www.w3.org/2000/svg">
    <g opacity="0.05">
        <path
            d="M121.184 273.636L263.42 179.734H263.38C271.51 174.381 276.38 165.325 276.38 155.584V8.31065C276.38 2.31347 269.618 -1.18825 264.709 2.23296L10.7027 179.492C4.14225 184.04 0.238281 191.527 0.238281 199.536V359.448C0.238281 367.417 4.14225 374.904 10.7027 379.492L264.748 556.751C269.658 560.213 276.421 556.671 276.421 550.674V401.871C276.421 393.097 272.034 384.926 264.709 380.096L121.184 285.348C116.998 282.572 116.998 276.413 121.184 273.636Z"
            fill="#FAF0F0" />
        <path
            d="M605 359.466V199.553C605 191.585 601.097 184.098 594.536 179.51L340.49 2.25035C335.58 -1.21112 328.818 2.33084 328.818 8.32804V155.601C328.818 165.302 333.688 174.398 341.818 179.751L484.055 273.653C488.24 276.431 488.24 282.589 484.055 285.366L340.531 380.114C333.205 384.943 328.818 393.114 328.818 401.888V550.691C328.818 556.688 335.58 560.19 340.49 556.769L594.536 379.509C601.097 374.962 605 367.475 605 359.466Z"
            fill="#FAF0F0" />
    </g>
</svg>
    