<svg width="138" height="43" viewBox="0 0 138 43" fill="none" xmlns="http://www.w3.org/2000/svg">
    <g filter="url(#filter0_b_5482_8995)">
    <rect width="138" height="42.4231" rx="2.49548" fill="white" fill-opacity="0.1"/>
    <g clip-path="url(#clip0_5482_8995)">
    <path d="M42.4804 7.48669C39.0862 7.48669 37.1497 9.42375 37.1497 12.6305C37.1497 15.7368 39.0869 17.7419 42.4145 17.7419C45.4776 17.7419 47.2649 16.1555 47.5632 13.6335H45.2454C45.0296 15.0702 44.1524 15.9386 42.431 15.9386C40.5275 15.9386 39.4016 14.8201 39.4016 12.6147C39.4016 10.4093 40.4113 9.29076 42.431 9.29076C44.0865 9.29076 44.9472 10.1251 45.1786 11.5785H47.48C47.1818 9.14036 45.6094 7.48669 42.4804 7.48669Z" fill="#C1FF14"/>
    <path fill-rule="evenodd" clip-rule="evenodd" d="M53.4882 17.7419C56.7327 17.7419 58.7193 15.7542 58.7193 12.5807C58.7193 9.27414 56.5506 7.48669 53.4882 7.48669C50.2439 7.48669 48.2572 9.34142 48.2572 12.6479C48.2572 15.9545 50.4259 17.7419 53.4882 17.7419ZM53.4882 9.28996C55.2764 9.28996 56.4682 10.342 56.4682 12.6472C56.4682 14.885 55.3753 15.9371 53.4882 15.9371C51.7002 15.9371 50.5083 14.8177 50.5083 12.5799C50.5083 10.342 51.6013 9.28996 53.4882 9.28996Z" fill="#C1FF14"/>
    <path d="M62.1457 7.65214H59.9276V17.5741H62.1457V10.8431C62.7256 9.72376 63.5195 9.20605 64.7946 9.20605C66.3835 9.20605 67.1948 9.94145 67.1948 11.5445V17.5733H69.4129V11.2262C69.4129 8.85458 68.1221 7.48511 65.8374 7.48511C63.8178 7.48511 62.7083 8.53794 62.1457 10.2913V7.65214Z" fill="#C1FF14"/>
    <path d="M72.6584 14.5335H70.3406C70.5886 16.5213 72.0628 17.7411 75.2414 17.7411C78.4197 17.7411 79.7607 16.4215 79.7607 14.6515C79.7607 13.149 79.0491 12.1128 76.8969 11.8627L73.9334 11.512C73.0562 11.4115 72.7416 11.0608 72.7416 10.4766C72.7416 9.77522 73.2712 9.24089 74.9597 9.24089C76.6482 9.24089 77.2271 9.80846 77.3598 10.6768H79.6611C79.3793 8.78967 78.1702 7.48669 75.0256 7.48669C71.8809 7.48669 70.6059 8.83954 70.6059 10.6096C70.6059 12.1627 71.4172 13.0984 73.5858 13.3485L76.4331 13.6826C77.3771 13.7997 77.6249 14.2003 77.6249 14.7346C77.6249 15.4526 76.9793 15.9869 75.2908 15.9869C73.6023 15.9869 72.8405 15.5191 72.6584 14.5335Z" fill="#C1FF14"/>
    <path fill-rule="evenodd" clip-rule="evenodd" d="M80.6041 12.6464C80.6041 15.5523 82.3922 17.7403 85.7363 17.7403C88.5342 17.7403 90.2556 16.4041 90.7523 14.3665H88.4839C88.1528 15.3521 87.3086 15.9363 85.8022 15.9363C84.1301 15.9363 83.0544 14.9507 82.8559 13.1807H90.8182C90.8347 9.70634 89.3446 7.48511 85.7528 7.48511C82.524 7.48511 80.6041 9.57336 80.6041 12.6464ZM88.4839 11.6608H82.8888C83.1706 10.0744 84.1968 9.2393 85.7363 9.2393C87.4907 9.2393 88.3349 10.1908 88.4839 11.6608Z" fill="#C1FF14"/>
    <path d="M94.1278 7.65214H91.9098V17.5741H94.1278V10.8431C94.7077 9.72376 95.5017 9.20605 96.7767 9.20605C98.3656 9.20605 99.1769 9.94145 99.1769 11.5445V17.5733H101.395V11.2262C101.395 8.85458 100.104 7.48511 97.8195 7.48511C95.7999 7.48511 94.6904 8.53794 94.1278 10.2913V7.65214Z" fill="#C1FF14"/>
    <path d="M104.641 14.5335H102.323C102.571 16.5213 104.045 17.7411 107.224 17.7411C110.402 17.7411 111.743 16.4215 111.743 14.6515C111.743 13.149 111.031 12.1128 108.879 11.8627L105.916 11.512C105.038 11.4115 104.724 11.0608 104.724 10.4766C104.724 9.77522 105.253 9.24089 106.942 9.24089C108.63 9.24089 109.21 9.80846 109.342 10.6768H111.643C111.362 8.78967 110.153 7.48669 107.008 7.48669C103.863 7.48669 102.588 8.83954 102.588 10.6096C102.588 12.1627 103.399 13.0984 105.568 13.3485L108.415 13.6826C109.359 13.7997 109.607 14.2003 109.607 14.7346C109.607 15.4526 108.962 15.9869 107.273 15.9869C105.585 15.9869 104.823 15.5191 104.641 14.5335Z" fill="#C1FF14"/>
    <path d="M118.197 20.0118L122.319 7.65247H120L117.153 16.3371L114.19 7.65247H111.74L114.968 16.4876H117.104L116.558 18.1745H112.817V20.0118H118.197Z" fill="#C1FF14"/>
    <path d="M124.603 14.5353H122.285C122.533 16.523 124.008 17.7428 127.186 17.7428C130.365 17.7428 131.705 16.4232 131.705 14.6532C131.705 13.1507 130.994 12.1145 128.842 11.8644L125.878 11.5137C125.001 11.4132 124.686 11.0625 124.686 10.4783C124.686 9.77693 125.216 9.2426 126.904 9.2426C128.593 9.2426 129.172 9.81017 129.304 10.6786H131.606C131.324 8.79138 130.115 7.4884 126.97 7.4884C123.826 7.4884 122.551 8.84125 122.551 10.6113C122.551 12.1644 123.362 13.1001 125.531 13.3502L128.378 13.6843C129.322 13.8014 129.57 14.202 129.57 14.7363C129.57 15.4543 128.924 15.9886 127.235 15.9886C125.547 15.9886 124.785 15.5208 124.603 14.5353Z" fill="#C1FF14"/>
    <path fill-rule="evenodd" clip-rule="evenodd" d="M32.0322 21.2942V17.5736V7.65247H22.1986H18.5109C11.0437 7.65247 4.99042 13.7597 4.99042 21.2934C4.99042 28.8271 11.0445 34.9351 18.5117 34.9351C25.9788 34.9351 32.0322 28.8278 32.0322 21.2942ZM15.4384 14.4729L22.1986 7.65247V17.5736H32.0322L25.2704 24.3972H15.4384V14.4729Z" fill="#C1FF14"/>
    <path d="M42.8762 27.1974C42.8196 26.7199 42.5903 26.3492 42.1881 26.0852C41.786 25.8213 41.2927 25.6894 40.7083 25.6894C40.281 25.6894 39.9072 25.7585 39.5867 25.8967C39.2694 26.035 39.0212 26.2251 38.8421 26.467C38.6662 26.7089 38.5782 26.9838 38.5782 27.2917C38.5782 27.5493 38.6395 27.7708 38.762 27.9562C38.8877 28.1384 39.0479 28.2908 39.2427 28.4133C39.4375 28.5327 39.6417 28.6317 39.8553 28.7102C40.069 28.7856 40.2653 28.8469 40.4444 28.894L41.4247 29.1579C41.676 29.2239 41.9556 29.315 42.2635 29.4313C42.5746 29.5475 42.8715 29.7062 43.1542 29.9072C43.4401 30.1052 43.6758 30.3597 43.8611 30.6707C44.0465 30.9817 44.1392 31.3635 44.1392 31.8159C44.1392 32.3374 44.0025 32.8087 43.7292 33.2297C43.459 33.6507 43.0631 33.9853 42.5416 34.2335C42.0232 34.4817 41.3932 34.6058 40.6518 34.6058C39.9606 34.6058 39.3621 34.4943 38.8562 34.2712C38.3535 34.0481 37.9577 33.7371 37.6686 33.3381C37.3827 32.9391 37.2209 32.4757 37.1832 31.9478H38.3897C38.4211 32.3123 38.5436 32.6139 38.7573 32.8527C38.9741 33.0883 39.2474 33.2643 39.5773 33.3805C39.9103 33.4936 40.2685 33.5502 40.6518 33.5502C41.0979 33.5502 41.4985 33.4779 41.8535 33.3334C42.2085 33.1857 42.4897 32.9815 42.6971 32.7207C42.9044 32.4568 43.0081 32.1489 43.0081 31.797C43.0081 31.4766 42.9186 31.2158 42.7395 31.0147C42.5604 30.8137 42.3248 30.6503 42.0326 30.5246C41.7404 30.3989 41.4247 30.289 41.0853 30.1947L39.8977 29.8554C39.1437 29.6386 38.5468 29.3292 38.1069 28.927C37.6671 28.5249 37.4471 27.9986 37.4471 27.3483C37.4471 26.8079 37.5932 26.3366 37.8854 25.9344C38.1807 25.5291 38.5766 25.215 39.073 24.9919C39.5726 24.7657 40.1302 24.6526 40.746 24.6526C41.3681 24.6526 41.9211 24.7641 42.4049 24.9872C42.8887 25.2071 43.272 25.5087 43.5548 25.892C43.8407 26.2753 43.9915 26.7105 44.0072 27.1974H42.8762Z" fill="#C1FF14"/>
    <path d="M55.9683 34.6066C55.5096 34.6066 55.0933 34.5202 54.7194 34.3474C54.3456 34.1715 54.0487 33.9186 53.8287 33.5887C53.6088 33.2556 53.4988 32.8535 53.4988 32.3822C53.4988 31.9675 53.5805 31.6313 53.7439 31.3737C53.9073 31.1129 54.1256 30.9087 54.399 30.7611C54.6723 30.6134 54.9739 30.5034 55.3038 30.4312C55.6368 30.3558 55.9714 30.2961 56.3076 30.2521C56.7475 30.1955 57.1041 30.1531 57.3774 30.1248C57.6539 30.0934 57.8549 30.0416 57.9806 29.9693C58.1094 29.8971 58.1738 29.7714 58.1738 29.5923V29.5546C58.1738 29.0896 58.0466 28.7283 57.7921 28.4707C57.5408 28.2131 57.159 28.0842 56.6469 28.0842C56.116 28.0842 55.6997 28.2005 55.3981 28.433C55.0964 28.6655 54.8844 28.9137 54.7618 29.1776L53.7062 28.8006C53.8947 28.3607 54.1461 28.0183 54.4602 27.7732C54.7776 27.525 55.1232 27.3522 55.497 27.2548C55.874 27.1543 56.2448 27.104 56.6092 27.104C56.8417 27.104 57.1088 27.1323 57.4104 27.1888C57.7151 27.2422 58.0089 27.3538 58.2917 27.5234C58.5776 27.6931 58.8148 27.9491 59.0033 28.2916C59.1918 28.6341 59.286 29.0928 59.286 29.6677V34.437H58.1738V33.4567H58.1173C58.0419 33.6138 57.9162 33.7819 57.7403 33.961C57.5643 34.1401 57.3303 34.2924 57.0381 34.4181C56.7459 34.5438 56.3893 34.6066 55.9683 34.6066ZM56.138 33.6075C56.5778 33.6075 56.9485 33.5211 57.2501 33.3483C57.5549 33.1755 57.7843 32.9525 57.9382 32.6791C58.0953 32.4058 58.1738 32.1183 58.1738 31.8167V30.7988C58.1267 30.8553 58.023 30.9072 57.8628 30.9543C57.7057 30.9983 57.5235 31.0375 57.3161 31.0721C57.1119 31.1035 56.9124 31.1318 56.7176 31.1569C56.526 31.1789 56.3704 31.1978 56.2511 31.2135C55.962 31.2512 55.6918 31.3124 55.4405 31.3973C55.1923 31.479 54.9912 31.6031 54.8372 31.7696C54.6864 31.9329 54.611 32.156 54.611 32.4388C54.611 32.8252 54.754 33.1174 55.0399 33.3153C55.3289 33.5101 55.695 33.6075 56.138 33.6075Z" fill="#C1FF14"/>
    <path d="M49.136 34.6863C48.4173 34.6863 47.7984 34.526 47.2794 34.2054C46.7603 33.8848 46.361 33.4432 46.0815 32.8807C45.802 32.3181 45.6623 31.6753 45.6623 30.9525C45.6623 30.217 45.8054 29.568 46.0915 29.0054C46.381 28.4397 46.7836 27.9981 47.2993 27.6807C47.8184 27.3601 48.424 27.1998 49.116 27.1998C49.6551 27.1998 50.1408 27.2941 50.5734 27.4827C51.0059 27.6713 51.3603 27.9353 51.6365 28.2747C51.9126 28.6141 52.084 29.0102 52.1505 29.4627H50.9727C50.8828 29.1327 50.6832 28.8404 50.3738 28.5859C50.0676 28.3281 49.6551 28.1993 49.136 28.1993C48.6768 28.1993 48.2742 28.3124 47.9282 28.5387C47.5855 28.7619 47.3176 29.0777 47.1246 29.4863C46.935 29.8917 46.8402 30.3679 46.8402 30.9148C46.8402 31.4742 46.9333 31.9614 47.1197 32.3762C47.3093 32.7911 47.5755 33.1132 47.9182 33.3427C48.2642 33.5721 48.6702 33.6868 49.136 33.6868C49.4421 33.6868 49.7199 33.6365 49.9695 33.536C50.219 33.4354 50.4303 33.2908 50.6033 33.1022C50.7764 32.9137 50.8995 32.6874 50.9727 32.4234H52.1505C52.084 32.8508 51.9193 33.2358 51.6564 33.5784C51.3969 33.9178 51.0525 34.1881 50.6233 34.3893C50.1974 34.5873 49.7016 34.6863 49.136 34.6863Z" fill="#C1FF14"/>
    <path d="M62.3825 23.7056V34.4361H61.1348V23.7056H62.3825Z" fill="#C1FF14"/>
    <path d="M67.8291 34.4361C67.0642 34.4361 66.4044 34.2821 65.8497 33.9741C65.2984 33.663 64.8729 33.2293 64.5732 32.673C64.2769 32.1135 64.1287 31.4629 64.1287 30.7212C64.1287 29.9795 64.2769 29.3258 64.5732 28.76C64.8729 28.1912 65.2898 27.748 65.8239 27.4306C66.3614 27.11 66.9884 26.9497 67.7051 26.9497C68.1185 26.9497 68.5268 27.0126 68.9299 27.1383C69.3331 27.264 69.7 27.4683 70.0308 27.7512C70.3615 28.0309 70.6251 28.4017 70.8215 28.8637C71.0179 29.3258 71.1161 29.8946 71.1161 30.5704V31.0418H64.997V30.0801H69.8757C69.8757 29.6715 69.7861 29.3069 69.607 28.9863C69.4313 28.6657 69.1797 28.4127 68.8524 28.2273C68.5285 28.0419 68.1461 27.9492 67.7051 27.9492C67.2193 27.9492 66.7989 28.0592 66.4441 28.2792C66.0926 28.496 65.8222 28.7789 65.6327 29.1278C65.4432 29.4766 65.3484 29.8506 65.3484 30.2498V30.8909C65.3484 31.4378 65.4518 31.9014 65.6585 32.2817C65.8687 32.6588 66.1598 32.9464 66.5319 33.1444C66.904 33.3393 67.3364 33.4367 67.8291 33.4367C68.1495 33.4367 68.439 33.3958 68.6974 33.3141C68.9592 33.2293 69.1849 33.1035 69.3744 32.937C69.5639 32.7673 69.7103 32.5567 69.8137 32.3052L70.992 32.607C70.868 32.9715 70.6595 33.2921 70.3667 33.5687C70.0738 33.8421 69.7121 34.0559 69.2814 34.2099C68.8507 34.3607 68.3666 34.4361 67.8291 34.4361Z" fill="#C1FF14"/>
    </g>
    </g>
    <defs>
    <filter id="filter0_b_5482_8995" x="-11.6444" y="-11.6444" width="161.289" height="65.7118" filterUnits="userSpaceOnUse" color-interpolation-filters="sRGB">
    <feFlood flood-opacity="0" result="BackgroundImageFix"/>
    <feGaussianBlur in="BackgroundImageFix" stdDeviation="5.82219"/>
    <feComposite in2="SourceAlpha" operator="in" result="effect1_backgroundBlur_5482_8995"/>
    <feBlend mode="normal" in="SourceGraphic" in2="effect1_backgroundBlur_5482_8995" result="shape"/>
    </filter>
    <clipPath id="clip0_5482_8995">
    <rect width="128.018" height="27.4503" fill="white" transform="translate(4.99097 7.48645)"/>
    </clipPath>
    </defs>
    </svg>
    