<svg width="95" height="83" viewBox="0 0 95 83" fill="none" xmlns="http://www.w3.org/2000/svg">
<g clip-path="url(#clip0_219_383)">
<path d="M36.8347 27.2324H36.852L19.0173 39.0066L19.0144 39.0085C17.4726 40.0315 17.4726 42.2972 19.0144 43.3202L19.0173 43.3221L41.2195 57.9789L41.2201 57.9793C41.9311 58.4481 42.3577 59.2409 42.3577 60.0955V82.4385L3.61275 55.4044C2.99772 54.9743 2.63428 54.2743 2.63428 53.5329V28.7958C2.63428 28.0457 2.99942 27.3495 3.60767 26.9278L3.61147 26.9251L42.3514 -0.109753V21.9966C42.3514 23.0001 41.8507 23.9297 41.0155 24.4796L36.8347 27.2324ZM42.9164 82.8283L42.9104 82.8242C42.9124 82.8255 42.9144 82.8269 42.9164 82.8283Z" stroke="#DF832F" stroke-width="3"/>
<path d="M92.2148 55.4016L92.2111 55.4042L53.4648 82.4392V60.0962C53.4648 59.2416 53.8914 58.4488 54.6024 57.98L54.603 57.9796L76.8052 43.3228L76.8081 43.3209C78.3499 42.298 78.3499 40.0322 76.8081 39.0092L76.8052 39.0073L54.8023 24.4813L54.8008 24.4803C53.9665 23.931 53.4648 22.9957 53.4648 21.9974V-0.109076L92.2097 26.925C92.8248 27.3551 93.1882 28.0551 93.1882 28.7965V53.5337C93.1882 54.2837 92.8231 54.98 92.2148 55.4016Z" stroke="#DF832F" stroke-width="3"/>
</g>
<defs>
<clipPath id="clip0_219_383">
<rect width="94" height="83" fill="white" transform="translate(0.6875)"/>
</clipPath>
</defs>
</svg>
